<svg xmlns="http://www.w3.org/2000/svg" xmlns:xlink="http://www.w3.org/1999/xlink" width="40" zoomAndPan="magnify" viewBox="0 0 30 30.000001" height="40" preserveAspectRatio="xMidYMid meet" version="1.0"><defs><clipPath id="ddafea4898"><path d="M 0.484375 0 L 29.515625 0 L 29.515625 29.03125 L 0.484375 29.03125 Z M 0.484375 0 " clip-rule="nonzero"/></clipPath><clipPath id="59515442ad"><path d="M 15 0 C 6.984375 0 0.484375 6.5 0.484375 14.515625 C 0.484375 22.53125 6.984375 29.03125 15 29.03125 C 23.015625 29.03125 29.515625 22.53125 29.515625 14.515625 C 29.515625 6.5 23.015625 0 15 0 Z M 15 0 " clip-rule="nonzero"/></clipPath><clipPath id="26e054d655"><path d="M 8.164062 7.9375 L 21.828125 7.9375 L 21.828125 21.605469 L 8.164062 21.605469 Z M 8.164062 7.9375 " clip-rule="nonzero"/></clipPath></defs><g clip-path="url(#ddafea4898)"><g clip-path="url(#59515442ad)"><path fill="#363745" d="M 0.484375 0 L 29.515625 0 L 29.515625 29.03125 L 0.484375 29.03125 Z M 0.484375 0 " fill-opacity="1" fill-rule="nonzero"/></g></g><g clip-path="url(#26e054d655)"><path fill="#eff0f7" d="M 14.996094 20.628906 C 11.765625 20.628906 9.136719 18 9.136719 14.769531 C 9.136719 11.539062 11.765625 8.910156 14.996094 8.910156 C 18.226562 8.910156 20.855469 11.539062 20.855469 14.769531 C 20.855469 18 18.226562 20.628906 14.996094 20.628906 Z M 19.824219 9.945312 C 18.535156 8.652344 16.820312 7.945312 14.996094 7.945312 C 13.171875 7.945312 11.457031 8.652344 10.167969 9.945312 C 8.878906 11.234375 8.167969 12.949219 8.167969 14.769531 C 8.167969 16.59375 8.878906 18.308594 10.167969 19.597656 C 11.457031 20.886719 13.171875 21.597656 14.996094 21.597656 C 16.820312 21.597656 18.535156 20.886719 19.824219 19.597656 C 21.113281 18.308594 21.824219 16.59375 21.824219 14.769531 C 21.824219 12.949219 21.113281 11.234375 19.824219 9.945312 " fill-opacity="1" fill-rule="nonzero"/><path fill="#eff0f7" d="M 14.996094 8.917969 C 11.769531 8.917969 9.144531 11.542969 9.144531 14.769531 C 9.144531 17.996094 11.769531 20.625 14.996094 20.625 C 18.222656 20.625 20.847656 17.996094 20.847656 14.769531 C 20.847656 11.542969 18.222656 8.917969 14.996094 8.917969 Z M 14.996094 20.636719 C 11.761719 20.636719 9.132812 18.003906 9.132812 14.769531 C 9.132812 11.535156 11.761719 8.90625 14.996094 8.90625 C 18.230469 8.90625 20.859375 11.535156 20.859375 14.769531 C 20.859375 18.003906 18.230469 20.636719 14.996094 20.636719 Z M 14.996094 7.949219 C 13.175781 7.949219 11.460938 8.660156 10.171875 9.949219 C 8.886719 11.234375 8.175781 12.949219 8.175781 14.769531 C 8.175781 16.59375 8.886719 18.304688 10.171875 19.59375 C 11.460938 20.882812 13.175781 21.589844 14.996094 21.589844 C 16.816406 21.589844 18.53125 20.882812 19.820312 19.59375 C 21.109375 18.304688 21.816406 16.59375 21.816406 14.769531 C 21.816406 12.949219 21.109375 11.234375 19.820312 9.949219 C 18.53125 8.660156 16.816406 7.949219 14.996094 7.949219 Z M 14.996094 21.605469 C 13.171875 21.605469 11.457031 20.894531 10.164062 19.601562 C 8.875 18.3125 8.164062 16.597656 8.164062 14.769531 C 8.164062 12.945312 8.875 11.230469 10.164062 9.9375 C 11.457031 8.648438 13.171875 7.9375 14.996094 7.9375 C 16.820312 7.9375 18.539062 8.648438 19.828125 9.9375 C 21.117188 11.230469 21.828125 12.945312 21.828125 14.769531 C 21.828125 16.597656 21.117188 18.3125 19.828125 19.601562 C 18.539062 20.894531 16.820312 21.605469 14.996094 21.605469 " fill-opacity="1" fill-rule="nonzero"/></g><path fill="#eff0f7" d="M 14.996094 11.890625 C 15.765625 11.890625 16.488281 12.191406 17.03125 12.734375 L 17.375 13.078125 L 18.058594 12.390625 L 17.71875 12.050781 C 16.988281 11.324219 16.023438 10.921875 14.996094 10.921875 C 13.96875 10.921875 13.003906 11.324219 12.277344 12.050781 C 11.550781 12.777344 11.148438 13.742188 11.148438 14.769531 C 11.148438 15.796875 11.550781 16.765625 12.277344 17.492188 C 13.003906 18.21875 13.96875 18.617188 14.996094 18.617188 C 16.023438 18.617188 16.988281 18.21875 17.71875 17.492188 L 18.058594 17.148438 L 17.375 16.464844 L 17.03125 16.808594 C 16.488281 17.351562 15.765625 17.648438 14.996094 17.648438 C 14.226562 17.648438 13.503906 17.351562 12.960938 16.808594 C 12.417969 16.261719 12.117188 15.539062 12.117188 14.769531 C 12.117188 14 12.417969 13.277344 12.960938 12.734375 C 13.503906 12.191406 14.226562 11.890625 14.996094 11.890625 " fill-opacity="1" fill-rule="nonzero"/><path fill="#eff0f7" d="M 14.996094 10.929688 C 13.96875 10.929688 13.003906 11.328125 12.28125 12.054688 C 11.554688 12.78125 11.15625 13.746094 11.15625 14.769531 C 11.15625 15.796875 11.554688 16.761719 12.28125 17.488281 C 13.003906 18.210938 13.96875 18.613281 14.996094 18.613281 C 16.023438 18.613281 16.988281 18.210938 17.710938 17.488281 L 18.050781 17.148438 L 17.375 16.472656 L 17.035156 16.8125 C 16.492188 17.355469 15.765625 17.65625 14.996094 17.65625 C 14.226562 17.65625 13.5 17.355469 12.957031 16.8125 C 12.410156 16.265625 12.109375 15.542969 12.109375 14.769531 C 12.109375 14 12.410156 13.273438 12.957031 12.730469 C 13.5 12.183594 14.226562 11.886719 14.996094 11.886719 C 15.765625 11.886719 16.492188 12.183594 17.035156 12.730469 L 17.375 13.066406 L 18.050781 12.390625 L 17.710938 12.054688 C 16.988281 11.328125 16.023438 10.929688 14.996094 10.929688 Z M 14.996094 18.625 C 13.96875 18.625 13 18.222656 12.269531 17.496094 C 11.542969 16.769531 11.144531 15.800781 11.144531 14.769531 C 11.144531 13.742188 11.542969 12.773438 12.269531 12.046875 C 13 11.316406 13.96875 10.917969 14.996094 10.917969 C 16.027344 10.917969 16.992188 11.316406 17.722656 12.046875 L 18.066406 12.390625 L 17.375 13.085938 L 17.027344 12.738281 C 16.484375 12.195312 15.765625 11.898438 14.996094 11.898438 C 14.230469 11.898438 13.507812 12.195312 12.964844 12.738281 C 12.421875 13.28125 12.125 14.003906 12.125 14.769531 C 12.125 15.539062 12.421875 16.257812 12.964844 16.800781 C 13.507812 17.34375 14.230469 17.644531 14.996094 17.644531 C 15.765625 17.644531 16.484375 17.34375 17.027344 16.800781 L 17.375 16.457031 L 18.066406 17.148438 L 17.722656 17.496094 C 16.992188 18.222656 16.027344 18.625 14.996094 18.625 " fill-opacity="1" fill-rule="nonzero"/></svg>