<svg width="274" height="274" viewBox="0 0 274 274" fill="none" xmlns="http://www.w3.org/2000/svg">
<g clip-path="url(#clip0_10_7171)">
<g clip-path="url(#clip1_10_7171)">
<g clip-path="url(#clip2_10_7171)">
<mask id="mask0_10_7171" style="mask-type:luminance" maskUnits="userSpaceOnUse" x="4" y="0" width="265" height="265">
<path d="M4.71765 0.208008H268.741V264.231H4.71765V0.208008Z" fill="white"/>
</mask>
<g mask="url(#mask0_10_7171)">
<mask id="mask1_10_7171" style="mask-type:luminance" maskUnits="userSpaceOnUse" x="4" y="0" width="265" height="265">
<path d="M136.729 0.208008C63.8315 0.208008 4.71765 59.3219 4.71765 132.22C4.71765 205.117 63.8315 264.231 136.729 264.231C209.627 264.231 268.741 205.117 268.741 132.22C268.741 59.3219 209.627 0.208008 136.729 0.208008Z" fill="white"/>
</mask>
<g mask="url(#mask1_10_7171)">
<path d="M4.71765 0.208008H268.741V264.231H4.71765V0.208008Z" fill="#363745"/>
</g>
</g>
<mask id="mask2_10_7171" style="mask-type:luminance" maskUnits="userSpaceOnUse" x="70" y="65" width="133" height="133">
<path d="M70.2616 65.752H202.273V197.764H70.2616V65.752Z" fill="white"/>
</mask>
<g mask="url(#mask2_10_7171)">
<path d="M136.658 65.7518C132.999 65.8228 129.34 67.0662 126.32 69.4819L77.2599 108.702C73.1035 112.041 70.2615 117.05 70.2615 122.734V184.406C70.2615 192.186 76.6915 198.616 84.5071 198.616H122.448C122.448 185.969 122.448 173.322 122.448 160.675C122.448 157.975 124.473 155.915 127.208 155.915H146.179C148.879 155.915 150.904 157.975 150.904 160.675C150.904 173.322 150.904 185.969 150.904 198.616H188.88C196.66 198.616 203.09 192.186 203.09 184.406V122.734C203.09 117.157 200.461 111.899 195.985 108.595C179.679 95.4153 163.408 82.2354 147.102 69.0911C144.012 66.782 140.317 65.6807 136.658 65.7518ZM136.836 75.237C138.434 75.2015 140.068 75.6988 141.418 76.729C158.47 90.4773 175.736 104.439 190.337 116.233C192.397 117.761 193.605 120.141 193.605 122.734V184.406C193.605 187.106 191.58 189.131 188.88 189.131H160.389V160.675C160.389 152.859 153.959 146.429 146.179 146.429H127.208C119.393 146.429 112.963 152.859 112.963 160.675V189.131H84.5071C81.7716 189.131 79.7467 187.106 79.7467 184.406V122.734C79.7467 120.247 80.9901 117.903 83.1926 116.126C99.5342 103.053 115.911 89.9799 132.253 76.9067C133.603 75.8054 135.201 75.2725 136.836 75.237Z" fill="#EFF0F7"/>
</g>
<g clip-path="url(#clip3_10_7171)">
<g clip-path="url(#clip4_10_7171)">
<g clip-path="url(#clip5_10_7171)">
<mask id="mask3_10_7171" style="mask-type:luminance" maskUnits="userSpaceOnUse" x="4" y="0" width="265" height="265">
<path d="M4.78418 0.252441H268.807V264.276H4.78418V0.252441Z" fill="white"/>
</mask>
<g mask="url(#mask3_10_7171)">
<mask id="mask4_10_7171" style="mask-type:luminance" maskUnits="userSpaceOnUse" x="4" y="0" width="265" height="265">
<path d="M136.796 0.252441C63.8981 0.252441 4.78418 59.3663 4.78418 132.264C4.78418 205.162 63.8981 264.276 136.796 264.276C209.693 264.276 268.807 205.162 268.807 132.264C268.807 59.3663 209.693 0.252441 136.796 0.252441Z" fill="white"/>
</mask>
<g mask="url(#mask4_10_7171)">
<path d="M4.78418 0.252441H268.807V264.276H4.78418V0.252441Z" fill="#363745"/>
</g>
</g>
<path fill-rule="evenodd" clip-rule="evenodd" d="M75.1676 113.43L128.295 68.5547C133.271 64.3522 140.552 64.3522 145.527 68.5547L198.655 113.43C208.163 121.46 202.484 136.983 190.04 136.983H184.647V185.572C184.647 192.946 178.668 198.925 171.294 198.925H101.475C94.1009 198.925 88.1228 192.946 88.1228 185.572V136.983H83.7837C71.3392 136.983 65.6606 121.46 75.1676 113.43ZM129.799 150.748C126.111 150.748 123.123 153.737 123.123 157.424V198.924H150.701V157.424C150.701 153.737 147.712 150.748 144.025 150.748H129.799Z" fill="white"/>
</g>
</g>
</g>
</g>
</g>
</g>
<defs>
<clipPath id="clip0_10_7171">
<rect width="272.833" height="272.833" fill="white" transform="translate(0.3125 0.208008)"/>
</clipPath>
<clipPath id="clip1_10_7171">
<rect width="272.833" height="272.833" fill="white" transform="translate(0.3125 0.208008)"/>
</clipPath>
<clipPath id="clip2_10_7171">
<rect width="272.833" height="272.833" fill="white" transform="translate(0.3125 0.208008)"/>
</clipPath>
<clipPath id="clip3_10_7171">
<rect width="272.833" height="272.833" fill="white" transform="translate(0.378906 0.252441)"/>
</clipPath>
<clipPath id="clip4_10_7171">
<rect width="272.833" height="272.833" fill="white" transform="translate(0.379028 0.252441)"/>
</clipPath>
<clipPath id="clip5_10_7171">
<rect width="272.833" height="272.833" fill="white" transform="translate(0.379028 0.252441)"/>
</clipPath>
</defs>
</svg>
