<svg xmlns="http://www.w3.org/2000/svg" xmlns:xlink="http://www.w3.org/1999/xlink" width="40" zoomAndPan="magnify" viewBox="0 0 30 30.000001" height="40" preserveAspectRatio="xMidYMid meet" version="1.0"><defs><clipPath id="b1dd27442d"><path d="M 0.484375 0 L 29.515625 0 L 29.515625 29.03125 L 0.484375 29.03125 Z M 0.484375 0 " clip-rule="nonzero"/></clipPath><clipPath id="c44698e51d"><path d="M 15 0 C 6.984375 0 0.484375 6.5 0.484375 14.515625 C 0.484375 22.53125 6.984375 29.03125 15 29.03125 C 23.015625 29.03125 29.515625 22.53125 29.515625 14.515625 C 29.515625 6.5 23.015625 0 15 0 Z M 15 0 " clip-rule="nonzero"/></clipPath><clipPath id="fffaa9bd05"><path d="M 7.691406 7.207031 L 22.207031 7.207031 L 22.207031 21.722656 L 7.691406 21.722656 Z M 7.691406 7.207031 " clip-rule="nonzero"/></clipPath></defs><g clip-path="url(#b1dd27442d)"><g clip-path="url(#c44698e51d)"><path fill="#363745" d="M 0.484375 0 L 29.515625 0 L 29.515625 29.03125 L 0.484375 29.03125 Z M 0.484375 0 " fill-opacity="1" fill-rule="nonzero"/></g></g><g clip-path="url(#fffaa9bd05)"><path fill="#eff0f7" d="M 14.992188 7.207031 C 14.589844 7.214844 14.1875 7.351562 13.855469 7.617188 L 8.460938 11.929688 C 8.003906 12.296875 7.691406 12.847656 7.691406 13.472656 L 7.691406 20.253906 C 7.691406 21.109375 8.398438 21.816406 9.257812 21.816406 L 13.429688 21.816406 C 13.429688 20.425781 13.429688 19.035156 13.429688 17.644531 C 13.429688 17.347656 13.652344 17.121094 13.953125 17.121094 L 16.039062 17.121094 C 16.335938 17.121094 16.558594 17.347656 16.558594 17.644531 C 16.558594 19.035156 16.558594 20.425781 16.558594 21.816406 L 20.734375 21.816406 C 21.589844 21.816406 22.296875 21.109375 22.296875 20.253906 L 22.296875 13.472656 C 22.296875 12.859375 22.007812 12.28125 21.515625 11.917969 C 19.722656 10.46875 17.933594 9.019531 16.140625 7.574219 C 15.800781 7.320312 15.394531 7.199219 14.992188 7.207031 Z M 15.011719 8.25 C 15.1875 8.246094 15.367188 8.300781 15.515625 8.414062 C 17.390625 9.925781 19.289062 11.460938 20.894531 12.757812 C 21.121094 12.925781 21.253906 13.1875 21.253906 13.472656 L 21.253906 20.253906 C 21.253906 20.550781 21.03125 20.773438 20.734375 20.773438 L 17.601562 20.773438 L 17.601562 17.644531 C 17.601562 16.785156 16.894531 16.078125 16.039062 16.078125 L 13.953125 16.078125 C 13.09375 16.078125 12.386719 16.785156 12.386719 17.644531 L 12.386719 20.773438 L 9.257812 20.773438 C 8.957031 20.773438 8.734375 20.550781 8.734375 20.253906 L 8.734375 13.472656 C 8.734375 13.199219 8.871094 12.941406 9.113281 12.746094 C 10.910156 11.308594 12.710938 9.871094 14.507812 8.433594 C 14.65625 8.3125 14.832031 8.253906 15.011719 8.25 Z M 15.011719 8.25 " fill-opacity="1" fill-rule="nonzero"/></g></svg>