<svg width="943" height="291" viewBox="0 0 943 291" fill="none" xmlns="http://www.w3.org/2000/svg">
<g clip-path="url(#clip0_10_7587)">
<g clip-path="url(#clip1_10_7587)">
<g clip-path="url(#clip2_10_7587)">
<mask id="mask0_10_7587" style="mask-type:luminance" maskUnits="userSpaceOnUse" x="10" y="17" width="263" height="264">
<path d="M10.0554 17.208H272.977V280.094H10.0554V17.208Z" fill="white"/>
</mask>
<g mask="url(#mask0_10_7587)">
<mask id="mask1_10_7587" style="mask-type:luminance" maskUnits="userSpaceOnUse" x="10" y="17" width="263" height="264">
<path d="M141.499 17.208C68.9214 17.208 10.0562 76.0732 10.0562 148.651C10.0562 221.265 68.9214 280.094 141.499 280.094C214.113 280.094 272.978 221.265 272.978 148.651C272.978 76.0732 214.113 17.208 141.499 17.208Z" fill="white"/>
</mask>
<g mask="url(#mask1_10_7587)">
<path d="M10.0562 17.208H272.978V280.094H10.0562V17.208Z" fill="#363745"/>
</g>
</g>
<mask id="mask2_10_7587" style="mask-type:luminance" maskUnits="userSpaceOnUse" x="100" y="162" width="101" height="55">
<path d="M100.751 162.719H200.79V216.539H100.751V162.719Z" fill="white"/>
</mask>
<g mask="url(#mask2_10_7587)">
<path d="M164.625 208.085C183.454 199.275 196.029 182.542 200.292 163.75C187.042 171.885 171.766 180.091 155.211 187.836C138.621 195.58 122.492 202.01 107.749 206.984C124.908 215.758 145.797 216.86 164.625 208.085Z" fill="#EFF0F7"/>
</g>
<mask id="mask3_10_7587" style="mask-type:luminance" maskUnits="userSpaceOnUse" x="27" y="99" width="229" height="118">
<path d="M27.9958 99.0581H255.357V216.54H27.9958V99.0581Z" fill="white"/>
</mask>
<g mask="url(#mask3_10_7587)">
<path d="M189.636 108.827C190.24 109.573 190.772 110.319 191.341 111.101C213.58 105.594 229.353 105.559 232.514 112.309C235.854 119.485 224.237 132.629 203.561 147.123C189.422 157.07 171.02 167.621 150.274 177.32C129.527 187.018 109.633 194.336 92.9361 198.813C68.5303 205.349 50.9808 205.811 47.6415 198.67C44.4797 191.921 54.6399 179.842 73.1485 166.307C72.8999 165.383 72.6867 164.46 72.4736 163.536C43.8758 182.506 27.2145 200.162 31.513 209.363C36.1668 219.346 63.983 216.859 100.858 204.923C117.022 199.701 134.927 192.667 153.4 184.034C171.873 175.401 188.783 166.2 203.171 157.141C235.996 136.537 255.712 116.785 251.094 106.838C246.76 97.6013 222.532 99.0578 189.636 108.827Z" fill="#EFF0F7"/>
</g>
<path d="M192.868 116.501C192.336 115.613 191.767 114.724 191.199 113.836C190.808 113.232 190.382 112.664 189.955 112.06C189.423 111.314 188.89 110.568 188.321 109.857C170.203 86.5174 137.804 77.9203 109.917 90.9581C82.0654 103.96 67.8554 134.334 74.1078 163.181C74.321 164.104 74.5341 164.993 74.7828 165.881C74.9604 166.591 75.1381 167.266 75.3512 167.941C75.6354 168.971 75.9551 169.931 76.3104 170.925C77.0209 172.915 77.8024 174.904 78.7261 176.858C79.8629 179.309 81.1418 181.618 82.5628 183.856C97.4834 182.116 119.971 175.046 143.986 163.82C167.965 152.63 187.859 139.912 198.766 129.574C197.949 127.087 196.989 124.6 195.853 122.149C194.929 120.195 193.934 118.312 192.868 116.501Z" fill="#EFF0F7"/>
<path d="M192.584 112.912C193.188 113.8 193.756 114.724 194.289 115.648C202.034 115.115 207.185 116.287 208.677 119.484C210.205 122.788 207.54 127.762 201.679 133.659C191.341 144.032 171.02 157.212 146.295 168.793C121.569 180.339 98.4069 187.444 83.806 188.723C75.5287 189.433 69.9867 188.261 68.4236 184.957C66.9671 181.796 69.3473 177.071 74.7116 171.493C74.3563 170.463 74.0366 169.468 73.7169 168.438C60.6436 178.883 53.8228 187.977 56.3095 193.341C58.9739 198.99 71.5143 199.345 89.3835 195.366C105.832 191.707 126.756 184.389 148.782 174.122C170.807 163.82 189.849 152.452 203.206 142.221C217.736 131.066 225.516 121.225 222.852 115.541C220.365 110.177 208.997 109.573 192.584 112.912Z" fill="#EFF0F7"/>
<mask id="mask4_10_7587" style="mask-type:luminance" maskUnits="userSpaceOnUse" x="9" y="17" width="265" height="264">
<path d="M9.92432 17.2524H273.027V280.069H9.92432V17.2524Z" fill="white"/>
</mask>
<g mask="url(#mask4_10_7587)">
<mask id="mask5_10_7587" style="mask-type:luminance" maskUnits="userSpaceOnUse" x="9" y="17" width="265" height="264">
<path d="M141.458 17.2524C68.83 17.2524 9.92432 76.1021 9.92432 148.661C9.92432 221.255 68.83 280.069 141.458 280.069C214.121 280.069 273.027 221.255 273.027 148.661C273.027 76.1021 214.121 17.2524 141.458 17.2524Z" fill="white"/>
</mask>
<g mask="url(#mask5_10_7587)">
<path d="M9.92432 17.2524H273.027V280.069H9.92432V17.2524Z" fill="#363745"/>
</g>
</g>
<mask id="mask6_10_7587" style="mask-type:luminance" maskUnits="userSpaceOnUse" x="26" y="96" width="231" height="120">
<path d="M26.4575 96.3394H256.783V215.353H26.4575V96.3394Z" fill="white"/>
</mask>
<g mask="url(#mask6_10_7587)">
<path d="M190.204 106.236C190.816 106.992 191.356 107.748 191.931 108.539C214.46 102.961 230.439 102.925 233.642 109.763C237.025 117.033 225.257 130.348 204.311 145.032C189.988 155.108 171.346 165.797 150.329 175.622C129.312 185.446 109.158 192.86 92.2438 197.394C67.5199 204.016 49.7417 204.484 46.3588 197.251C43.1558 190.413 53.4485 178.177 72.1983 164.465C71.9464 163.53 71.7305 162.594 71.5146 161.658C42.544 180.876 25.6655 198.762 30.0201 208.083C34.7345 218.196 62.9134 215.677 100.269 203.584C116.644 198.294 134.782 191.169 153.496 182.423C172.21 173.678 189.34 164.357 203.915 155.18C237.169 134.307 257.142 114.298 252.464 104.221C248.073 94.8639 223.529 96.3394 190.204 106.236Z" fill="white"/>
</g>
<mask id="mask7_10_7587" style="mask-type:luminance" maskUnits="userSpaceOnUse" x="100" y="160" width="102" height="56">
<path d="M100.161 160.831H201.505V215.353H100.161V160.831Z" fill="white"/>
</mask>
<g mask="url(#mask7_10_7587)">
<path d="M164.868 206.788C183.942 197.863 196.682 180.912 201 161.875C187.577 170.116 172.102 178.429 155.331 186.275C138.525 194.12 122.186 200.634 107.251 205.672C124.633 214.561 145.794 215.677 164.868 206.788Z" fill="white"/>
</g>
<path d="M193.689 114.092C193.149 113.19 192.572 112.288 191.996 111.386C191.599 110.773 191.167 110.196 190.735 109.582C190.194 108.825 189.654 108.067 189.077 107.345C170.7 83.64 137.838 74.9084 109.552 88.1501C81.3021 101.356 66.8889 132.205 73.2307 161.503C73.4469 162.441 73.6631 163.343 73.9153 164.245C74.0955 164.967 74.2757 165.652 74.4919 166.338C74.7801 167.384 75.1044 168.358 75.4648 169.368C76.1854 171.389 76.9782 173.41 77.915 175.394C79.0681 177.884 80.3653 180.229 81.8066 182.502C96.9405 180.734 119.749 173.554 144.108 162.152C168.43 150.787 188.609 137.87 199.671 127.37C198.842 124.845 197.869 122.319 196.716 119.829C195.779 117.845 194.77 115.933 193.689 114.092Z" fill="white"/>
<path d="M193.284 110.424C193.897 111.321 194.475 112.255 195.016 113.188C202.884 112.65 208.117 113.834 209.632 117.066C211.184 120.405 208.478 125.432 202.523 131.392C192.021 141.876 171.378 155.196 146.259 166.901C121.141 178.57 97.6108 185.751 82.778 187.043C74.3692 187.761 68.7392 186.577 67.1513 183.237C65.6716 180.042 68.0896 175.267 73.5391 169.63C73.1782 168.588 72.8534 167.583 72.5286 166.542C59.2477 177.098 52.3185 186.289 54.8448 191.711C57.5515 197.42 70.2911 197.779 88.4441 193.757C105.153 190.059 126.41 182.663 148.786 172.287C171.161 161.874 190.505 150.385 204.075 140.045C218.835 128.771 226.739 118.825 224.032 113.08C221.506 107.659 209.957 107.049 193.284 110.424Z" fill="white"/>
<path d="M193.284 110.424C193.897 111.321 194.475 112.255 195.016 113.188C202.884 112.65 208.117 113.834 209.632 117.066C211.184 120.405 208.478 125.432 202.523 131.392C192.021 141.876 171.378 155.196 146.259 166.901C121.141 178.57 97.6108 185.751 82.778 187.043C74.3692 187.761 68.7392 186.577 67.1513 183.237C65.6716 180.042 68.0896 175.267 73.5391 169.63C73.1782 168.588 72.8534 167.583 72.5286 166.542C59.2477 177.098 52.3185 186.289 54.8448 191.711C57.5515 197.42 70.2911 197.779 88.4441 193.757C105.153 190.059 126.41 182.663 148.786 172.287C171.161 161.874 190.505 150.385 204.075 140.045C218.835 128.771 226.739 118.825 224.032 113.08C221.506 107.659 209.957 107.049 193.284 110.424Z" fill="white"/>
<rect x="216.594" y="103.859" width="20.9051" height="23.3938" fill="white"/>
<rect x="216.594" y="123.769" width="10.4525" height="11.448" fill="white"/>
<rect x="44.3761" y="183.995" width="17.4209" height="20.4073" fill="white"/>
<rect x="61.7969" y="187.978" width="17.4209" height="20.4073" fill="white"/>
<rect x="54.3309" y="175.036" width="11.448" height="6.96836" fill="white"/>
<rect x="58.8105" y="171.552" width="7.4661" height="5.97288" fill="white"/>
<rect x="62.7925" y="167.57" width="6.96836" height="5.47514" fill="white"/>
<rect x="71.6938" y="164.086" width="5.48015" height="5.07038" transform="rotate(76 71.6938 164.086)" fill="white"/>
<rect x="217.034" y="102.864" width="5.48015" height="5.07038" transform="rotate(76 217.034 102.864)" fill="white"/>
<rect x="216.391" y="103.024" width="9.06837" height="9.46755" transform="rotate(76 216.391 103.024)" fill="white"/>
<rect x="211.811" y="101.134" width="7.1946" height="17.3838" transform="rotate(76 211.811 101.134)" fill="white"/>
<rect x="194.693" y="105.85" width="5.68659" height="3.82629" transform="rotate(54 194.693 105.85)" fill="white"/>
<rect x="72.0662" y="163.949" width="5.68659" height="4.42796" transform="rotate(76 72.0662 163.949)" fill="white"/>
<rect x="77.2269" y="189.968" width="17.4209" height="13.439" fill="white"/>
<rect x="108.584" y="182.502" width="14.4345" height="10.4525" fill="white"/>
<rect x="77.2269" y="189.968" width="17.4209" height="13.439" fill="white"/>
<rect x="94.6477" y="187.479" width="13.9367" height="11.9458" fill="white"/>
<rect width="11.448" height="6.47062" transform="matrix(1 0 0 -1 131.481 182.502)" fill="white"/>
<rect width="11.448" height="6.47062" transform="matrix(1 0 0 -1 145.417 176.031)" fill="white"/>
<rect width="11.448" height="6.47062" transform="matrix(1 0 0 -1 145.417 176.031)" fill="white"/>
<rect width="11.448" height="6.47062" transform="matrix(1 0 0 -1 150.892 173.045)" fill="white"/>
<rect width="11.448" height="6.47062" transform="matrix(1 0 0 -1 139.444 179.516)" fill="white"/>
<rect x="121.526" y="178.52" width="13.9367" height="11.9458" fill="white"/>
<rect x="49.3535" y="178.52" width="10.4525" height="11.448" fill="white"/>
<rect x="159.354" y="161.099" width="10.4525" height="11.448" fill="white"/>
<rect x="169.807" y="155.126" width="10.4525" height="11.448" fill="white"/>
<rect x="180.259" y="148.656" width="10.4525" height="11.448" fill="white"/>
<rect x="189.218" y="144.176" width="10.4525" height="11.448" fill="white"/>
<rect x="197.68" y="138.701" width="10.4525" height="11.448" fill="white"/>
<rect x="202.657" y="133.226" width="10.4525" height="11.448" fill="white"/>
<rect x="209.625" y="127.253" width="10.4525" height="11.448" fill="white"/>
</g>
</g>
</g>
<path d="M345.801 241.798C340.216 241.798 335.253 240.424 330.909 237.676C326.654 234.928 323.286 230.984 320.804 225.843C318.411 220.702 317.214 214.63 317.214 207.627C317.214 200.448 318.411 194.331 320.804 189.279C323.286 184.226 326.654 180.326 330.909 177.578C335.253 174.831 340.216 173.457 345.801 173.457C350.676 173.457 355.064 174.609 358.964 176.914C362.864 179.218 365.479 182.188 366.808 185.822H365.346V157.369C365.346 153.468 366.365 150.499 368.404 148.46C370.443 146.422 373.368 145.402 377.179 145.402C380.902 145.402 383.783 146.422 385.822 148.46C387.949 150.499 389.013 153.468 389.013 157.369V229.566C389.013 233.466 387.993 236.435 385.955 238.474C384.004 240.513 381.124 241.532 377.312 241.532C373.589 241.532 370.708 240.513 368.67 238.474C366.631 236.435 365.612 233.466 365.612 229.566V221.987L367.074 228.502C365.833 232.491 363.218 235.726 359.23 238.208C355.329 240.601 350.853 241.798 345.801 241.798ZM353.379 224.38C355.773 224.38 357.9 223.804 359.761 222.652C361.623 221.411 363.041 219.594 364.016 217.2C365.08 214.719 365.612 211.528 365.612 207.627C365.612 201.688 364.459 197.434 362.155 194.863C359.85 192.204 356.925 190.874 353.379 190.874C350.986 190.874 348.859 191.451 346.997 192.603C345.136 193.755 343.673 195.572 342.61 198.054C341.546 200.448 341.014 203.639 341.014 207.627C341.014 213.478 342.166 217.732 344.471 220.391C346.776 223.051 349.745 224.38 353.379 224.38ZM437.027 241.798C429.049 241.798 422.135 240.424 416.285 237.676C410.523 234.84 406.091 230.851 402.989 225.71C399.887 220.569 398.335 214.497 398.335 207.494C398.335 200.758 399.798 194.863 402.723 189.811C405.737 184.67 409.814 180.681 414.955 177.844C420.185 174.919 426.124 173.457 432.772 173.457C437.647 173.457 442.079 174.254 446.068 175.85C450.057 177.357 453.469 179.617 456.306 182.631C459.142 185.556 461.27 189.102 462.688 193.268C464.195 197.434 464.948 202.087 464.948 207.228C464.948 209.001 464.461 210.331 463.486 211.217C462.511 212.015 460.959 212.414 458.832 212.414H418.146V201.245H447.663L445.536 202.974C445.536 199.694 445.093 197.035 444.206 194.996C443.32 192.957 441.99 191.406 440.218 190.343C438.534 189.279 436.406 188.747 433.836 188.747C431.088 188.747 428.694 189.412 426.656 190.741C424.706 191.982 423.199 193.844 422.135 196.326C421.071 198.808 420.54 201.91 420.54 205.633V206.83C420.54 213.123 421.914 217.644 424.661 220.391C427.498 223.051 431.841 224.38 437.691 224.38C439.642 224.38 441.858 224.159 444.339 223.715C446.91 223.184 449.348 222.475 451.652 221.588C453.957 220.702 455.951 220.569 457.635 221.189C459.32 221.721 460.605 222.696 461.491 224.114C462.466 225.444 462.998 226.995 463.087 228.768C463.175 230.452 462.777 232.136 461.89 233.82C461.004 235.416 459.541 236.657 457.502 237.543C454.4 238.962 451.076 240.025 447.53 240.734C444.074 241.443 440.572 241.798 437.027 241.798ZM501.632 241.532C498.529 241.532 495.87 240.779 493.654 239.272C491.527 237.676 489.754 235.327 488.336 232.225L469.322 188.747C468.259 186.088 467.904 183.606 468.259 181.301C468.613 178.997 469.721 177.18 471.583 175.85C473.533 174.432 476.192 173.723 479.56 173.723C482.397 173.723 484.657 174.387 486.341 175.717C488.114 176.958 489.71 179.44 491.128 183.163L504.557 217.732H500.036L514.13 183.03C515.548 179.396 517.144 176.958 518.916 175.717C520.689 174.387 523.127 173.723 526.229 173.723C528.888 173.723 531.016 174.432 532.611 175.85C534.295 177.18 535.315 178.997 535.669 181.301C536.024 183.606 535.581 186.088 534.34 188.747L514.928 232.358C513.598 235.46 511.825 237.765 509.609 239.272C507.482 240.779 504.823 241.532 501.632 241.532Z" fill="white"/>
<path d="M344.737 135.874C339.064 135.874 334.41 134.854 330.776 132.816C327.142 130.688 324.394 127.542 322.533 123.375C320.76 119.209 319.874 113.935 319.874 107.553V79.6317C319.874 75.7316 320.893 72.8065 322.932 70.8564C324.97 68.8177 327.895 67.7983 331.707 67.7983C335.518 67.7983 338.444 68.8177 340.482 70.8564C342.521 72.8065 343.54 75.7316 343.54 79.6317V108.218C343.54 111.409 344.205 113.802 345.535 115.398C346.864 116.993 348.947 117.791 351.784 117.791C354.975 117.791 357.59 116.639 359.629 114.334C361.667 112.03 362.687 108.972 362.687 105.16V79.6317C362.687 75.7316 363.706 72.8065 365.745 70.8564C367.783 68.8177 370.708 67.7983 374.52 67.7983C378.332 67.7983 381.257 68.8177 383.295 70.8564C385.334 72.8065 386.353 75.7316 386.353 79.6317V123.641C386.353 131.619 382.542 135.608 374.919 135.608C371.196 135.608 368.315 134.588 366.276 132.55C364.238 130.511 363.218 127.542 363.218 123.641V115.93L365.346 122.445C363.396 126.788 360.648 130.112 357.102 132.417C353.645 134.721 349.524 135.874 344.737 135.874ZM410.497 135.608C406.774 135.608 403.893 134.588 401.855 132.55C399.816 130.511 398.797 127.542 398.797 123.641V79.6317C398.797 75.8202 399.772 72.8951 401.722 70.8564C403.76 68.8177 406.641 67.7983 410.364 67.7983C414.087 67.7983 416.923 68.8177 418.873 70.8564C420.824 72.8951 421.799 75.8202 421.799 79.6317V85.8808L420.336 80.4295C422.463 76.2634 425.477 73.0724 429.377 70.8564C433.366 68.6404 437.887 67.5324 442.939 67.5324C448.169 67.5324 452.468 68.5518 455.836 70.5905C459.205 72.5405 461.731 75.6429 463.415 79.8976C465.099 84.0637 465.941 89.3378 465.941 95.7199V123.641C465.941 127.542 464.922 130.511 462.883 132.55C460.844 134.588 457.919 135.608 454.108 135.608C450.296 135.608 447.371 134.588 445.332 132.55C443.294 130.511 442.274 127.542 442.274 123.641V96.6506C442.274 92.6618 441.565 89.8253 440.147 88.1411C438.817 86.457 436.823 85.6149 434.164 85.6149C430.618 85.6149 427.782 86.7672 425.654 89.0719C423.527 91.2879 422.463 94.3016 422.463 98.1131V123.641C422.463 131.619 418.475 135.608 410.497 135.608ZM521.179 135.874C516.126 135.874 511.606 134.677 507.617 132.284C503.717 129.802 501.146 126.567 499.905 122.578L501.368 117.126V123.641C501.368 127.542 500.348 130.511 498.31 132.55C496.36 134.588 493.523 135.608 489.8 135.608C485.989 135.608 483.064 134.588 481.025 132.55C479.075 130.511 478.1 127.542 478.1 123.641V51.4443C478.1 47.5441 479.119 44.5747 481.158 42.536C483.197 40.4972 486.077 39.4779 489.8 39.4779C493.612 39.4779 496.537 40.4972 498.576 42.536C500.703 44.5747 501.767 47.5441 501.767 51.4443V79.8976H500.171C501.501 76.2634 504.116 73.294 508.016 70.9893C511.916 68.6847 516.304 67.5324 521.179 67.5324C526.852 67.5324 531.816 68.9063 536.07 71.6541C540.414 74.402 543.782 78.3021 546.175 83.3546C548.568 88.4071 549.765 94.5232 549.765 101.703C549.765 108.706 548.568 114.777 546.175 119.919C543.782 125.06 540.414 129.004 536.07 131.752C531.816 134.5 526.852 135.874 521.179 135.874ZM513.733 118.456C516.126 118.456 518.209 117.88 519.982 116.727C521.844 115.487 523.306 113.669 524.37 111.276C525.433 108.794 525.965 105.603 525.965 101.703C525.965 95.7642 524.813 91.5095 522.508 88.9389C520.204 86.2797 517.279 84.9501 513.733 84.9501C511.34 84.9501 509.212 85.5263 507.351 86.6786C505.489 87.8309 504.027 89.648 502.963 92.1299C501.9 94.5232 501.368 97.7142 501.368 101.703C501.368 107.553 502.52 111.808 504.825 114.467C507.129 117.126 510.099 118.456 513.733 118.456ZM584.084 135.874C575.575 135.874 569.281 133.613 565.204 129.093C561.215 124.483 559.221 117.57 559.221 108.351V51.4443C559.221 47.5441 560.24 44.5747 562.279 42.536C564.318 40.4972 567.198 39.4779 570.921 39.4779C574.733 39.4779 577.658 40.4972 579.697 42.536C581.824 44.5747 582.888 47.5441 582.888 51.4443V107.553C582.888 110.833 583.508 113.226 584.749 114.733C586.079 116.24 587.763 116.993 589.802 116.993C590.422 116.993 591.042 116.949 591.663 116.86C592.372 116.683 593.126 116.55 593.923 116.462C595.43 116.462 596.538 117.038 597.247 118.19C598.045 119.342 598.444 121.691 598.444 125.237C598.444 128.339 597.823 130.688 596.582 132.284C595.341 133.791 593.436 134.766 590.865 135.209C590.156 135.298 589.137 135.43 587.807 135.608C586.478 135.785 585.237 135.874 584.084 135.874ZM636.573 135.874C629.305 135.874 622.967 134.5 617.56 131.752C612.153 129.004 607.943 125.06 604.929 119.919C601.915 114.777 600.408 108.706 600.408 101.703C600.408 96.3847 601.25 91.6424 602.934 87.4764C604.619 83.2216 607.056 79.6317 610.247 76.7066C613.438 73.6929 617.25 71.4325 621.682 69.9257C626.114 68.3302 631.078 67.5324 636.573 67.5324C643.842 67.5324 650.179 68.9063 655.586 71.6541C660.993 74.402 665.16 78.3465 668.085 83.4876C671.098 88.54 672.605 94.6119 672.605 101.703C672.605 106.933 671.763 111.675 670.079 115.93C668.395 120.184 665.957 123.819 662.766 126.832C659.664 129.758 655.852 132.018 651.332 133.613C646.9 135.12 641.98 135.874 636.573 135.874ZM636.573 118.456C638.966 118.456 641.094 117.88 642.955 116.727C644.817 115.487 646.235 113.669 647.21 111.276C648.274 108.794 648.806 105.603 648.806 101.703C648.806 95.7642 647.653 91.5095 645.349 88.9389C643.044 86.2797 640.119 84.9501 636.573 84.9501C634.18 84.9501 632.053 85.5263 630.191 86.6786C628.33 87.8309 626.867 89.648 625.803 92.1299C624.74 94.5232 624.208 97.7142 624.208 101.703C624.208 107.553 625.36 111.808 627.665 114.467C629.97 117.126 632.939 118.456 636.573 118.456ZM715.493 135.874C708.136 135.874 701.71 134.5 696.214 131.752C690.807 129.004 686.597 125.06 683.583 119.919C680.569 114.689 679.062 108.573 679.062 101.57C679.062 96.2517 679.904 91.5095 681.588 87.3434C683.273 83.0887 685.71 79.4988 688.901 76.5737C692.181 73.6485 696.037 71.4325 700.469 69.9257C704.989 68.3302 709.997 67.5324 715.493 67.5324C718.064 67.5324 720.767 67.7983 723.604 68.3302C726.44 68.7734 729.365 69.6597 732.379 70.9893C734.506 71.7871 735.969 73.0281 736.767 74.7122C737.653 76.3077 738.008 78.0362 737.83 79.8976C737.742 81.7591 737.21 83.4432 736.235 84.9501C735.348 86.457 734.063 87.4764 732.379 88.0082C730.783 88.54 728.966 88.3184 726.928 87.3434C725.509 86.6343 724.003 86.1468 722.407 85.8808C720.9 85.5263 719.438 85.349 718.019 85.349C715.626 85.349 713.499 85.7036 711.637 86.4127C709.864 87.1218 708.358 88.1855 707.117 89.6037C705.876 90.9333 704.901 92.6175 704.192 94.6562C703.571 96.6949 703.261 98.9995 703.261 101.57C703.261 106.711 704.546 110.744 707.117 113.669C709.687 116.595 713.321 118.057 718.019 118.057C719.438 118.057 720.9 117.924 722.407 117.658C723.914 117.304 725.421 116.772 726.928 116.063C728.966 115.088 730.783 114.91 732.379 115.531C733.975 116.063 735.26 117.082 736.235 118.589C737.21 120.096 737.742 121.78 737.83 123.641C737.919 125.414 737.52 127.143 736.634 128.827C735.747 130.422 734.24 131.619 732.113 132.417C729.188 133.746 726.307 134.633 723.471 135.076C720.723 135.608 718.064 135.874 715.493 135.874ZM756.893 135.608C753.171 135.608 750.29 134.588 748.251 132.55C746.212 130.511 745.193 127.542 745.193 123.641V51.4443C745.193 47.5441 746.212 44.5747 748.251 42.536C750.29 40.4972 753.171 39.4779 756.893 39.4779C760.705 39.4779 763.63 40.4972 765.669 42.536C767.796 44.5747 768.86 47.5441 768.86 51.4443V95.321H769.126L785.347 75.6429C787.563 72.9837 789.602 71.0337 791.463 69.7927C793.413 68.4631 796.028 67.7983 799.308 67.7983C802.587 67.7983 805.114 68.5961 806.886 70.1916C808.659 71.7871 809.59 73.7815 809.678 76.1748C809.767 78.568 808.792 80.9613 806.753 83.3546L789.203 104.096V95.8528L808.881 120.583C810.831 123.065 811.629 125.503 811.274 127.896C810.919 130.201 809.767 132.062 807.817 133.48C805.956 134.899 803.562 135.608 800.637 135.608C797.092 135.608 794.255 134.987 792.128 133.746C790 132.417 787.873 130.378 785.746 127.63L769.126 107.154H768.86V123.641C768.86 131.619 764.871 135.608 756.893 135.608Z" fill="white"/>
<defs>
<clipPath id="clip0_10_7587">
<rect width="784.396" height="272.833" fill="white" transform="translate(0.712402 17.208)"/>
</clipPath>
<clipPath id="clip1_10_7587">
<rect width="784.396" height="272.833" fill="white" transform="translate(0.712402 17.208)"/>
</clipPath>
<clipPath id="clip2_10_7587">
<rect width="784.396" height="272.833" fill="white" transform="translate(0.712402 17.208)"/>
</clipPath>
</defs>
</svg>
