<svg xmlns="http://www.w3.org/2000/svg" xmlns:xlink="http://www.w3.org/1999/xlink" width="40" zoomAndPan="magnify" viewBox="0 0 30 30.000001" height="40" preserveAspectRatio="xMidYMid meet" version="1.0"><defs><clipPath id="43242a754c"><path d="M 0.484375 0 L 29.515625 0 L 29.515625 29.03125 L 0.484375 29.03125 Z M 0.484375 0 " clip-rule="nonzero"/></clipPath><clipPath id="7dc8a51677"><path d="M 15 0 C 6.984375 0 0.484375 6.5 0.484375 14.515625 C 0.484375 22.53125 6.984375 29.03125 15 29.03125 C 23.015625 29.03125 29.515625 22.53125 29.515625 14.515625 C 29.515625 6.5 23.015625 0 15 0 Z M 15 0 " clip-rule="nonzero"/></clipPath><clipPath id="44695d734b"><path d="M 7.988281 7.441406 L 21.78125 7.441406 L 21.78125 21.230469 L 7.988281 21.230469 Z M 7.988281 7.441406 " clip-rule="nonzero"/></clipPath></defs><g clip-path="url(#43242a754c)"><g clip-path="url(#7dc8a51677)"><path fill="#363745" d="M 0.484375 0 L 29.515625 0 L 29.515625 29.03125 L 0.484375 29.03125 Z M 0.484375 0 " fill-opacity="1" fill-rule="nonzero"/></g></g><path fill="#eff0f7" d="M 18.457031 14.117188 L 13.023438 10.980469 C 12.753906 10.824219 12.417969 11.019531 12.417969 11.328125 L 12.417969 17.601562 C 12.417969 17.886719 12.726562 18.0625 12.972656 17.921875 L 18.457031 14.757812 C 18.703125 14.613281 18.703125 14.257812 18.457031 14.117188 " fill-opacity="1" fill-rule="nonzero"/><g clip-path="url(#44695d734b)"><path fill="#eff0f7" d="M 19.265625 18.714844 C 18.125 19.855469 16.609375 20.484375 15 20.484375 C 13.386719 20.484375 11.871094 19.855469 10.730469 18.714844 C 9.589844 17.574219 8.964844 16.058594 8.964844 14.449219 C 8.964844 12.835938 9.589844 11.320312 10.730469 10.179688 C 11.871094 9.039062 13.386719 8.414062 15 8.414062 C 16.609375 8.414062 18.125 9.039062 19.265625 10.179688 C 20.40625 11.320312 21.035156 12.835938 21.035156 14.449219 C 21.035156 16.058594 20.40625 17.574219 19.265625 18.714844 Z M 15 7.441406 C 11.128906 7.441406 7.988281 10.578125 7.988281 14.449219 C 7.988281 18.320312 11.128906 21.457031 15 21.457031 C 18.871094 21.457031 22.007812 18.320312 22.007812 14.449219 C 22.007812 10.578125 18.871094 7.441406 15 7.441406 " fill-opacity="1" fill-rule="nonzero"/></g></svg>