<svg xmlns="http://www.w3.org/2000/svg" xmlns:xlink="http://www.w3.org/1999/xlink" width="80" zoomAndPan="magnify" viewBox="0 0 60 30.000001" height="40" preserveAspectRatio="xMidYMid meet" version="1.0"><defs><g/><clipPath id="11769495f8"><path d="M 0.96875 0 L 59.03125 0 L 59.03125 29.03125 L 0.96875 29.03125 Z M 0.96875 0 " clip-rule="nonzero"/></clipPath><clipPath id="1967719953"><path d="M 59.03125 14.515625 C 59.03125 22.53125 52.53125 29.03125 44.515625 29.03125 L 15.484375 29.03125 C 7.46875 29.03125 0.96875 22.53125 0.96875 14.515625 C 0.96875 6.5 7.46875 0 15.484375 0 L 44.515625 0 C 52.53125 0 59.03125 6.5 59.03125 14.515625 Z M 59.03125 14.515625 " clip-rule="nonzero"/></clipPath></defs><g clip-path="url(#11769495f8)"><g clip-path="url(#1967719953)"><path fill="#363745" d="M 59.03125 0 L 59.03125 29.03125 L 0.96875 29.03125 L 0.96875 0 Z M 59.03125 0 " fill-opacity="1" fill-rule="nonzero"/></g></g><g fill="#eff0f7" fill-opacity="1"><g transform="translate(10.447849, 17.975677)"><g><path d="M 3.90625 0 L 2.546875 -2.46875 L 2.171875 -2.46875 L 2.171875 0 L 0.578125 0 L 0.578125 -6.53125 L 3.25 -6.53125 C 3.757812 -6.53125 4.195312 -6.441406 4.5625 -6.265625 C 4.925781 -6.085938 5.195312 -5.84375 5.375 -5.53125 C 5.5625 -5.21875 5.65625 -4.867188 5.65625 -4.484375 C 5.65625 -4.046875 5.53125 -3.65625 5.28125 -3.3125 C 5.039062 -2.96875 4.679688 -2.726562 4.203125 -2.59375 L 5.703125 0 Z M 2.171875 -3.59375 L 3.15625 -3.59375 C 3.445312 -3.59375 3.664062 -3.660156 3.8125 -3.796875 C 3.957031 -3.941406 4.03125 -4.148438 4.03125 -4.421875 C 4.03125 -4.660156 3.957031 -4.851562 3.8125 -5 C 3.664062 -5.144531 3.445312 -5.21875 3.15625 -5.21875 L 2.171875 -5.21875 Z M 2.171875 -3.59375 "/></g></g></g><g fill="#eff0f7" fill-opacity="1"><g transform="translate(16.517148, 17.975677)"><g><path d="M 5.46875 -2.6875 C 5.46875 -2.53125 5.460938 -2.375 5.453125 -2.21875 L 1.84375 -2.21875 C 1.863281 -1.894531 1.96875 -1.644531 2.15625 -1.46875 C 2.34375 -1.300781 2.566406 -1.21875 2.828125 -1.21875 C 3.222656 -1.21875 3.5 -1.382812 3.65625 -1.71875 L 5.359375 -1.71875 C 5.265625 -1.375 5.101562 -1.066406 4.875 -0.796875 C 4.65625 -0.523438 4.375 -0.3125 4.03125 -0.15625 C 3.6875 0 3.304688 0.078125 2.890625 0.078125 C 2.378906 0.078125 1.925781 -0.03125 1.53125 -0.25 C 1.132812 -0.46875 0.820312 -0.773438 0.59375 -1.171875 C 0.375 -1.578125 0.265625 -2.050781 0.265625 -2.59375 C 0.265625 -3.132812 0.375 -3.609375 0.59375 -4.015625 C 0.8125 -4.421875 1.117188 -4.726562 1.515625 -4.9375 C 1.910156 -5.15625 2.367188 -5.265625 2.890625 -5.265625 C 3.390625 -5.265625 3.832031 -5.160156 4.21875 -4.953125 C 4.613281 -4.742188 4.921875 -4.441406 5.140625 -4.046875 C 5.359375 -3.660156 5.46875 -3.207031 5.46875 -2.6875 Z M 3.84375 -3.09375 C 3.84375 -3.375 3.75 -3.59375 3.5625 -3.75 C 3.375 -3.914062 3.144531 -4 2.875 -4 C 2.601562 -4 2.375 -3.921875 2.1875 -3.765625 C 2.007812 -3.609375 1.898438 -3.382812 1.859375 -3.09375 Z M 3.84375 -3.09375 "/></g></g></g><g fill="#eff0f7" fill-opacity="1"><g transform="translate(22.251333, 17.975677)"><g><path d="M 0.265625 -2.59375 C 0.265625 -3.101562 0.367188 -3.5625 0.578125 -3.96875 C 0.796875 -4.375 1.085938 -4.6875 1.453125 -4.90625 C 1.816406 -5.132812 2.210938 -5.25 2.640625 -5.25 C 2.960938 -5.25 3.253906 -5.191406 3.515625 -5.078125 C 3.773438 -4.960938 3.988281 -4.800781 4.15625 -4.59375 L 4.15625 -5.203125 L 5.75 -5.203125 L 5.75 2.484375 L 4.15625 2.484375 L 4.15625 -0.65625 C 3.976562 -0.4375 3.757812 -0.257812 3.5 -0.125 C 3.238281 0 2.941406 0.0625 2.609375 0.0625 C 2.191406 0.0625 1.800781 -0.046875 1.4375 -0.265625 C 1.082031 -0.492188 0.796875 -0.804688 0.578125 -1.203125 C 0.367188 -1.609375 0.265625 -2.070312 0.265625 -2.59375 Z M 4.15625 -2.59375 C 4.15625 -2.875 4.097656 -3.109375 3.984375 -3.296875 C 3.878906 -3.484375 3.738281 -3.625 3.5625 -3.71875 C 3.394531 -3.820312 3.210938 -3.875 3.015625 -3.875 C 2.828125 -3.875 2.644531 -3.820312 2.46875 -3.71875 C 2.300781 -3.625 2.160156 -3.484375 2.046875 -3.296875 C 1.929688 -3.109375 1.875 -2.875 1.875 -2.59375 C 1.875 -2.3125 1.929688 -2.078125 2.046875 -1.890625 C 2.160156 -1.703125 2.300781 -1.554688 2.46875 -1.453125 C 2.644531 -1.359375 2.828125 -1.3125 3.015625 -1.3125 C 3.203125 -1.3125 3.382812 -1.359375 3.5625 -1.453125 C 3.738281 -1.554688 3.878906 -1.703125 3.984375 -1.890625 C 4.097656 -2.078125 4.15625 -2.3125 4.15625 -2.59375 Z M 4.15625 -2.59375 "/></g></g></g><g fill="#eff0f7" fill-opacity="1"><g transform="translate(28.571968, 17.975677)"><g><path d="M 5.703125 -5.203125 L 5.703125 0 L 4.109375 0 L 4.109375 -0.703125 C 3.953125 -0.472656 3.734375 -0.285156 3.453125 -0.140625 C 3.179688 -0.00390625 2.878906 0.0625 2.546875 0.0625 C 2.148438 0.0625 1.796875 -0.0234375 1.484375 -0.203125 C 1.179688 -0.378906 0.945312 -0.632812 0.78125 -0.96875 C 0.613281 -1.3125 0.53125 -1.707031 0.53125 -2.15625 L 0.53125 -5.203125 L 2.109375 -5.203125 L 2.109375 -2.375 C 2.109375 -2.03125 2.195312 -1.757812 2.375 -1.5625 C 2.5625 -1.375 2.804688 -1.28125 3.109375 -1.28125 C 3.421875 -1.28125 3.664062 -1.375 3.84375 -1.5625 C 4.019531 -1.757812 4.109375 -2.03125 4.109375 -2.375 L 4.109375 -5.203125 Z M 5.703125 -5.203125 "/></g></g></g><g fill="#eff0f7" fill-opacity="1"><g transform="translate(34.846061, 17.975677)"><g><path d="M 5.46875 -2.6875 C 5.46875 -2.53125 5.460938 -2.375 5.453125 -2.21875 L 1.84375 -2.21875 C 1.863281 -1.894531 1.96875 -1.644531 2.15625 -1.46875 C 2.34375 -1.300781 2.566406 -1.21875 2.828125 -1.21875 C 3.222656 -1.21875 3.5 -1.382812 3.65625 -1.71875 L 5.359375 -1.71875 C 5.265625 -1.375 5.101562 -1.066406 4.875 -0.796875 C 4.65625 -0.523438 4.375 -0.3125 4.03125 -0.15625 C 3.6875 0 3.304688 0.078125 2.890625 0.078125 C 2.378906 0.078125 1.925781 -0.03125 1.53125 -0.25 C 1.132812 -0.46875 0.820312 -0.773438 0.59375 -1.171875 C 0.375 -1.578125 0.265625 -2.050781 0.265625 -2.59375 C 0.265625 -3.132812 0.375 -3.609375 0.59375 -4.015625 C 0.8125 -4.421875 1.117188 -4.726562 1.515625 -4.9375 C 1.910156 -5.15625 2.367188 -5.265625 2.890625 -5.265625 C 3.390625 -5.265625 3.832031 -5.160156 4.21875 -4.953125 C 4.613281 -4.742188 4.921875 -4.441406 5.140625 -4.046875 C 5.359375 -3.660156 5.46875 -3.207031 5.46875 -2.6875 Z M 3.84375 -3.09375 C 3.84375 -3.375 3.75 -3.59375 3.5625 -3.75 C 3.375 -3.914062 3.144531 -4 2.875 -4 C 2.601562 -4 2.375 -3.921875 2.1875 -3.765625 C 2.007812 -3.609375 1.898438 -3.382812 1.859375 -3.09375 Z M 3.84375 -3.09375 "/></g></g></g><g fill="#eff0f7" fill-opacity="1"><g transform="translate(40.580246, 17.975677)"><g><path d="M 2.6875 0.078125 C 2.238281 0.078125 1.835938 0 1.484375 -0.15625 C 1.128906 -0.3125 0.847656 -0.523438 0.640625 -0.796875 C 0.429688 -1.066406 0.316406 -1.367188 0.296875 -1.703125 L 1.875 -1.703125 C 1.894531 -1.523438 1.976562 -1.378906 2.125 -1.265625 C 2.269531 -1.148438 2.453125 -1.09375 2.671875 -1.09375 C 2.867188 -1.09375 3.019531 -1.128906 3.125 -1.203125 C 3.238281 -1.285156 3.296875 -1.390625 3.296875 -1.515625 C 3.296875 -1.660156 3.21875 -1.769531 3.0625 -1.84375 C 2.90625 -1.914062 2.65625 -2 2.3125 -2.09375 C 1.9375 -2.175781 1.625 -2.265625 1.375 -2.359375 C 1.125 -2.453125 0.910156 -2.601562 0.734375 -2.8125 C 0.554688 -3.019531 0.46875 -3.300781 0.46875 -3.65625 C 0.46875 -3.957031 0.546875 -4.226562 0.703125 -4.46875 C 0.867188 -4.71875 1.113281 -4.910156 1.4375 -5.046875 C 1.757812 -5.191406 2.140625 -5.265625 2.578125 -5.265625 C 3.234375 -5.265625 3.75 -5.101562 4.125 -4.78125 C 4.5 -4.457031 4.710938 -4.03125 4.765625 -3.5 L 3.296875 -3.5 C 3.273438 -3.675781 3.195312 -3.816406 3.0625 -3.921875 C 2.925781 -4.035156 2.75 -4.09375 2.53125 -4.09375 C 2.34375 -4.09375 2.195312 -4.054688 2.09375 -3.984375 C 2 -3.910156 1.953125 -3.8125 1.953125 -3.6875 C 1.953125 -3.539062 2.03125 -3.425781 2.1875 -3.34375 C 2.351562 -3.269531 2.601562 -3.195312 2.9375 -3.125 C 3.320312 -3.03125 3.632812 -2.929688 3.875 -2.828125 C 4.113281 -2.734375 4.320312 -2.578125 4.5 -2.359375 C 4.6875 -2.148438 4.785156 -1.867188 4.796875 -1.515625 C 4.796875 -1.203125 4.707031 -0.925781 4.53125 -0.6875 C 4.363281 -0.445312 4.117188 -0.257812 3.796875 -0.125 C 3.484375 0.0078125 3.113281 0.078125 2.6875 0.078125 Z M 2.6875 0.078125 "/></g></g></g><g fill="#eff0f7" fill-opacity="1"><g transform="translate(45.774525, 17.975677)"><g><path d="M 3.46875 -1.34375 L 3.46875 0 L 2.65625 0 C 2.082031 0 1.632812 -0.140625 1.3125 -0.421875 C 0.988281 -0.703125 0.828125 -1.164062 0.828125 -1.8125 L 0.828125 -3.875 L 0.203125 -3.875 L 0.203125 -5.203125 L 0.828125 -5.203125 L 0.828125 -6.46875 L 2.421875 -6.46875 L 2.421875 -5.203125 L 3.46875 -5.203125 L 3.46875 -3.875 L 2.421875 -3.875 L 2.421875 -1.78125 C 2.421875 -1.632812 2.457031 -1.523438 2.53125 -1.453125 C 2.601562 -1.378906 2.726562 -1.34375 2.90625 -1.34375 Z M 3.46875 -1.34375 "/></g></g></g></svg>