<svg width="546" height="273" viewBox="0 0 546 273" fill="none" xmlns="http://www.w3.org/2000/svg">
<g clip-path="url(#clip0_10_7298)">
<g clip-path="url(#clip1_10_7298)">
<g clip-path="url(#clip2_10_7298)">
<mask id="mask0_10_7298" style="mask-type:luminance" maskUnits="userSpaceOnUse" x="8" y="0" width="529" height="265">
<path d="M8.81055 0H536.857V264.023H8.81055V0Z" fill="white"/>
</mask>
<g mask="url(#mask0_10_7298)">
<mask id="mask1_10_7298" style="mask-type:luminance" maskUnits="userSpaceOnUse" x="8" y="0" width="529" height="265">
<path d="M536.857 132.012C536.857 204.909 477.743 264.023 404.845 264.023H140.822C67.9244 264.023 8.81055 204.909 8.81055 132.012C8.81055 59.1139 67.9244 0 140.822 0H404.845C477.743 0 536.857 59.1139 536.857 132.012Z" fill="white"/>
</mask>
<g mask="url(#mask1_10_7298)">
<path d="M536.857 0V264.023H8.81055V0H536.857Z" fill="#363745"/>
</g>
</g>
<path d="M104.08 168.45C101.36 168.45 99.2585 167.708 97.7749 166.224C96.2914 164.679 95.5496 162.546 95.5496 159.826V110.868C95.5496 108.086 96.2914 105.954 97.7749 104.47C99.3203 102.987 101.453 102.245 104.173 102.245H126.983C134.401 102.245 140.119 104.068 144.137 107.716C148.217 111.301 150.257 116.308 150.257 122.737C150.257 126.878 149.329 130.495 147.475 133.586C145.682 136.615 143.055 138.964 139.593 140.633C136.194 142.24 131.99 143.043 126.983 143.043L127.725 141.374H132.176C134.834 141.374 137.183 142.023 139.223 143.322C141.262 144.558 142.962 146.474 144.322 149.07L148.959 157.416C149.948 159.208 150.411 160.97 150.349 162.701C150.288 164.37 149.608 165.761 148.31 166.873C147.073 167.924 145.25 168.45 142.839 168.45C140.428 168.45 138.45 167.955 136.904 166.966C135.421 165.977 134.092 164.432 132.917 162.33L124.479 146.845C123.738 145.485 122.78 144.558 121.605 144.063C120.492 143.507 119.194 143.229 117.711 143.229H112.611V159.826C112.611 162.546 111.9 164.679 110.478 166.224C109.056 167.708 106.924 168.45 104.08 168.45ZM112.611 131.175H123.923C127.199 131.175 129.703 130.526 131.434 129.228C133.165 127.929 134.03 125.92 134.03 123.2C134.03 120.604 133.165 118.657 131.434 117.359C129.703 115.999 127.199 115.319 123.923 115.319H112.611V131.175ZM183.487 168.635C177.924 168.635 173.102 167.677 169.022 165.761C165.004 163.783 161.914 161.001 159.75 157.416C157.587 153.83 156.505 149.596 156.505 144.712C156.505 140.014 157.525 135.904 159.565 132.38C161.666 128.795 164.51 126.013 168.095 124.035C171.742 121.995 175.884 120.975 180.52 120.975C183.92 120.975 187.011 121.531 189.793 122.644C192.574 123.695 194.954 125.271 196.932 127.373C198.91 129.413 200.394 131.886 201.383 134.791C202.434 137.696 202.959 140.942 202.959 144.527C202.959 145.763 202.619 146.691 201.939 147.309C201.26 147.865 200.178 148.143 198.694 148.143H170.321V140.354H190.905L189.422 141.56C189.422 139.273 189.113 137.418 188.494 135.996C187.876 134.575 186.949 133.493 185.713 132.751C184.538 132.009 183.055 131.638 181.262 131.638C179.346 131.638 177.677 132.102 176.255 133.029C174.895 133.895 173.844 135.193 173.102 136.924C172.361 138.654 171.99 140.818 171.99 143.414V144.249C171.99 148.638 172.948 151.79 174.864 153.707C176.842 155.561 179.871 156.488 183.951 156.488C185.311 156.488 186.856 156.334 188.587 156.025C190.38 155.654 192.08 155.159 193.687 154.541C195.294 153.923 196.685 153.83 197.86 154.263C199.034 154.634 199.93 155.314 200.549 156.303C201.229 157.23 201.599 158.312 201.661 159.548C201.723 160.723 201.445 161.897 200.827 163.072C200.209 164.184 199.189 165.05 197.767 165.668C195.603 166.657 193.285 167.399 190.813 167.893C188.402 168.388 185.96 168.635 183.487 168.635ZM249.756 185.14C247.098 185.14 245.058 184.429 243.636 183.007C242.215 181.586 241.504 179.515 241.504 176.795V159.919H242.524C241.596 162.515 239.773 164.617 237.053 166.224C234.333 167.832 231.273 168.635 227.873 168.635C223.979 168.635 220.517 167.677 217.488 165.761C214.521 163.844 212.172 161.094 210.441 157.508C208.772 153.923 207.938 149.689 207.938 144.805C207.938 139.798 208.772 135.533 210.441 132.009C212.172 128.486 214.521 125.766 217.488 123.85C220.517 121.933 223.979 120.975 227.873 120.975C231.397 120.975 234.518 121.84 237.238 123.571C240.02 125.24 241.844 127.466 242.709 130.247L241.689 134.791V129.413C241.689 126.755 242.4 124.715 243.822 123.293C245.244 121.871 247.253 121.161 249.849 121.161C252.507 121.161 254.516 121.871 255.876 123.293C257.298 124.715 258.009 126.755 258.009 129.413V176.795C258.009 179.515 257.267 181.586 255.783 183.007C254.361 184.429 252.352 185.14 249.756 185.14ZM233.158 156.488C234.828 156.488 236.311 156.087 237.609 155.283C238.907 154.418 239.896 153.15 240.576 151.481C241.318 149.75 241.689 147.525 241.689 144.805C241.689 140.663 240.885 137.696 239.278 135.904C237.671 134.049 235.631 133.122 233.158 133.122C231.489 133.122 230.006 133.524 228.708 134.327C227.41 135.131 226.39 136.398 225.648 138.129C224.906 139.798 224.535 142.023 224.535 144.805C224.535 148.885 225.339 151.852 226.946 153.707C228.553 155.561 230.624 156.488 233.158 156.488ZM284.631 168.635C280.675 168.635 277.43 167.924 274.895 166.503C272.361 165.019 270.444 162.824 269.146 159.919C267.91 157.014 267.292 153.336 267.292 148.885V129.413C267.292 126.693 268.003 124.653 269.424 123.293C270.846 121.871 272.886 121.161 275.544 121.161C278.202 121.161 280.242 121.871 281.664 123.293C283.086 124.653 283.797 126.693 283.797 129.413V149.349C283.797 151.574 284.26 153.243 285.187 154.356C286.115 155.468 287.567 156.025 289.546 156.025C291.771 156.025 293.594 155.221 295.016 153.614C296.438 152.007 297.149 149.874 297.149 147.216V129.413C297.149 126.693 297.86 124.653 299.282 123.293C300.703 121.871 302.743 121.161 305.401 121.161C308.059 121.161 310.099 121.871 311.521 123.293C312.943 124.653 313.654 126.693 313.654 129.413V160.105C313.654 165.668 310.996 168.45 305.679 168.45C303.083 168.45 301.074 167.739 299.652 166.317C298.231 164.895 297.52 162.824 297.52 160.105V154.727L299.003 159.27C297.643 162.299 295.727 164.617 293.254 166.224C290.844 167.832 287.969 168.635 284.631 168.635ZM348.109 168.635C342.545 168.635 337.724 167.677 333.644 165.761C329.626 163.783 326.535 161.001 324.371 157.416C322.208 153.83 321.126 149.596 321.126 144.712C321.126 140.014 322.146 135.904 324.186 132.38C326.288 128.795 329.131 126.013 332.717 124.035C336.364 121.995 340.505 120.975 345.142 120.975C348.541 120.975 351.632 121.531 354.414 122.644C357.196 123.695 359.576 125.271 361.554 127.373C363.532 129.413 365.015 131.886 366.004 134.791C367.055 137.696 367.581 140.942 367.581 144.527C367.581 145.763 367.241 146.691 366.561 147.309C365.881 147.865 364.799 148.143 363.315 148.143H334.942V140.354H355.527L354.043 141.56C354.043 139.273 353.734 137.418 353.116 135.996C352.498 134.575 351.57 133.493 350.334 132.751C349.16 132.009 347.676 131.638 345.883 131.638C343.967 131.638 342.298 132.102 340.876 133.029C339.516 133.895 338.465 135.193 337.724 136.924C336.982 138.654 336.611 140.818 336.611 143.414V144.249C336.611 148.638 337.569 151.79 339.485 153.707C341.463 155.561 344.492 156.488 348.572 156.488C349.932 156.488 351.478 156.334 353.209 156.025C355.001 155.654 356.701 155.159 358.308 154.541C359.916 153.923 361.306 153.83 362.481 154.263C363.655 154.634 364.552 155.314 365.17 156.303C365.85 157.23 366.221 158.312 366.283 159.548C366.344 160.723 366.066 161.897 365.448 163.072C364.83 164.184 363.81 165.05 362.388 165.668C360.225 166.657 357.907 167.399 355.434 167.893C353.023 168.388 350.581 168.635 348.109 168.635ZM392.865 168.635C390.145 168.635 387.364 168.419 384.52 167.986C381.739 167.615 379.204 166.904 376.917 165.853C375.371 165.235 374.259 164.401 373.579 163.35C372.961 162.299 372.652 161.186 372.652 160.012C372.713 158.837 373.053 157.786 373.672 156.859C374.352 155.87 375.217 155.19 376.268 154.819C377.38 154.387 378.617 154.418 379.977 154.912C382.573 155.839 384.891 156.519 386.931 156.952C389.033 157.323 391.042 157.508 392.958 157.508C395.245 157.508 396.883 157.199 397.872 156.581C398.862 155.901 399.356 155.036 399.356 153.985C399.356 153.058 399.016 152.347 398.336 151.852C397.718 151.358 396.822 151.018 395.647 150.832L385.355 149.163C381.522 148.483 378.555 147.092 376.453 144.991C374.352 142.827 373.301 140.014 373.301 136.553C373.301 133.338 374.197 130.587 375.99 128.3C377.844 125.951 380.348 124.159 383.5 122.922C386.715 121.624 390.393 120.975 394.534 120.975C397.316 120.975 399.851 121.191 402.138 121.624C404.425 121.995 406.65 122.706 408.814 123.757C410.174 124.313 411.132 125.117 411.688 126.168C412.245 127.218 412.461 128.331 412.337 129.506C412.214 130.618 411.812 131.669 411.132 132.658C410.514 133.586 409.648 134.235 408.536 134.605C407.423 134.915 406.125 134.822 404.641 134.327C402.601 133.524 400.778 132.936 399.171 132.566C397.625 132.195 396.173 132.009 394.813 132.009C392.278 132.009 390.485 132.349 389.435 133.029C388.384 133.709 387.858 134.575 387.858 135.625C387.858 136.429 388.136 137.109 388.693 137.665C389.249 138.16 390.115 138.5 391.289 138.685L401.581 140.447C405.538 141.065 408.567 142.425 410.668 144.527C412.832 146.567 413.914 149.349 413.914 152.872C413.914 157.879 411.997 161.774 408.165 164.555C404.332 167.275 399.232 168.635 392.865 168.635ZM444.161 168.635C439.525 168.635 435.693 167.924 432.664 166.503C429.696 165.081 427.471 162.948 425.987 160.105C424.504 157.199 423.762 153.583 423.762 149.256V134.142H420.609C418.631 134.142 417.086 133.616 415.973 132.566C414.922 131.515 414.397 130 414.397 128.022C414.397 126.044 414.922 124.56 415.973 123.571C417.086 122.52 418.631 121.995 420.609 121.995H423.762V116.246C423.762 113.526 424.473 111.455 425.895 110.034C427.316 108.612 429.356 107.901 432.014 107.901C434.673 107.901 436.713 108.612 438.134 110.034C439.556 111.455 440.267 113.526 440.267 116.246V121.995H447.87C449.91 121.995 451.456 122.52 452.506 123.571C453.619 124.56 454.176 126.044 454.176 128.022C454.176 130 453.619 131.515 452.506 132.566C451.456 133.616 449.91 134.142 447.87 134.142H440.267V148.7C440.267 150.987 440.792 152.687 441.843 153.799C442.956 154.85 444.687 155.376 447.036 155.376C447.901 155.376 448.736 155.283 449.539 155.097C450.343 154.912 451.085 154.819 451.765 154.819C452.754 154.758 453.557 155.067 454.176 155.747C454.794 156.365 455.103 157.817 455.103 160.105C455.103 161.959 454.825 163.535 454.268 164.834C453.712 166.07 452.723 166.966 451.301 167.523C450.436 167.832 449.261 168.079 447.778 168.264C446.294 168.512 445.089 168.635 444.161 168.635Z" fill="white"/>
</g>
</g>
</g>
<defs>
<clipPath id="clip0_10_7298">
<rect width="545.667" height="272.833" fill="white"/>
</clipPath>
<clipPath id="clip1_10_7298">
<rect width="545.667" height="272.833" fill="white"/>
</clipPath>
<clipPath id="clip2_10_7298">
<rect width="545.667" height="272.833" fill="white"/>
</clipPath>
</defs>
</svg>
