<svg xmlns="http://www.w3.org/2000/svg" xmlns:xlink="http://www.w3.org/1999/xlink" width="115" zoomAndPan="magnify" viewBox="0 0 86.25 30.000001" height="40" preserveAspectRatio="xMidYMid meet" version="1.0"><defs><g/><clipPath id="9e0fb1548d"><path d="M 1.027344 0 L 29.9375 0 L 29.9375 28.90625 L 1.027344 28.90625 Z M 1.027344 0 " clip-rule="nonzero"/></clipPath><clipPath id="d1c79c7ec1"><path d="M 15.480469 0 C 7.5 0 1.027344 6.472656 1.027344 14.453125 C 1.027344 22.4375 7.5 28.90625 15.480469 28.90625 C 23.464844 28.90625 29.9375 22.4375 29.9375 14.453125 C 29.9375 6.472656 23.464844 0 15.480469 0 Z M 15.480469 0 " clip-rule="nonzero"/></clipPath><clipPath id="d9dcd354d4"><path d="M 11 16 L 22 16 L 22 21.917969 L 11 21.917969 Z M 11 16 " clip-rule="nonzero"/></clipPath><clipPath id="cd27b3cd08"><path d="M 3 9 L 28 9 L 28 21.917969 L 3 21.917969 Z M 3 9 " clip-rule="nonzero"/></clipPath><clipPath id="bcc64b9d9b"><path d="M 78 3 L 84.496094 3 L 84.496094 14 L 78 14 Z M 78 3 " clip-rule="nonzero"/></clipPath></defs><g clip-path="url(#9e0fb1548d)"><g clip-path="url(#d1c79c7ec1)"><path fill="#363745" d="M 1.027344 0 L 29.9375 0 L 29.9375 28.90625 L 1.027344 28.90625 Z M 1.027344 0 " fill-opacity="1" fill-rule="nonzero"/></g></g><g clip-path="url(#d9dcd354d4)"><path fill="#eff0f7" d="M 18.023438 20.988281 C 20.09375 20.019531 21.476562 18.179688 21.945312 16.113281 C 20.488281 17.007812 18.808594 17.910156 16.988281 18.761719 C 15.164062 19.613281 13.390625 20.320312 11.769531 20.867188 C 13.65625 21.832031 15.953125 21.953125 18.023438 20.988281 " fill-opacity="1" fill-rule="nonzero"/></g><g clip-path="url(#cd27b3cd08)"><path fill="#eff0f7" d="M 20.773438 10.074219 C 20.839844 10.15625 20.898438 10.238281 20.960938 10.324219 C 23.40625 9.71875 25.140625 9.714844 25.488281 10.457031 C 25.855469 11.246094 24.578125 12.691406 22.304688 14.285156 C 20.75 15.378906 18.726562 16.539062 16.445312 17.605469 C 14.164062 18.671875 11.976562 19.476562 10.140625 19.96875 C 7.457031 20.6875 5.527344 20.738281 5.160156 19.953125 C 4.8125 19.210938 5.929688 17.882812 7.964844 16.394531 C 7.9375 16.292969 7.914062 16.191406 7.890625 16.089844 C 4.746094 18.175781 2.914062 20.117188 3.386719 21.128906 C 3.898438 22.226562 6.957031 21.953125 11.011719 20.640625 C 12.789062 20.066406 14.757812 19.292969 16.789062 18.34375 C 18.820312 17.394531 20.679688 16.382812 22.261719 15.386719 C 25.871094 13.121094 28.039062 10.949219 27.53125 9.855469 C 27.054688 8.839844 24.390625 9 20.773438 10.074219 " fill-opacity="1" fill-rule="nonzero"/></g><path fill="#eff0f7" d="M 21.128906 10.917969 C 21.070312 10.820312 21.007812 10.722656 20.945312 10.625 C 20.902344 10.558594 20.855469 10.496094 20.808594 10.429688 C 20.75 10.347656 20.691406 10.265625 20.628906 10.1875 C 18.636719 7.621094 15.074219 6.675781 12.007812 8.109375 C 8.945312 9.539062 7.382812 12.878906 8.070312 16.050781 C 8.09375 16.152344 8.117188 16.25 8.144531 16.347656 C 8.164062 16.425781 8.183594 16.5 8.207031 16.574219 C 8.238281 16.6875 8.273438 16.792969 8.3125 16.902344 C 8.390625 17.121094 8.476562 17.339844 8.578125 17.554688 C 8.703125 17.824219 8.84375 18.078125 9 18.324219 C 10.640625 18.132812 13.113281 17.355469 15.753906 16.121094 C 18.390625 14.890625 20.578125 13.492188 21.777344 12.355469 C 21.6875 12.082031 21.582031 11.808594 21.457031 11.539062 C 21.355469 11.324219 21.246094 11.117188 21.128906 10.917969 " fill-opacity="1" fill-rule="nonzero"/><path fill="#eff0f7" d="M 21.097656 10.523438 C 21.164062 10.621094 21.226562 10.722656 21.285156 10.824219 C 22.136719 10.765625 22.703125 10.894531 22.867188 11.246094 C 23.035156 11.609375 22.742188 12.15625 22.097656 12.804688 C 20.960938 13.945312 18.726562 15.394531 16.007812 16.667969 C 13.289062 17.9375 10.742188 18.71875 9.136719 18.859375 C 8.226562 18.9375 7.617188 18.808594 7.445312 18.445312 C 7.285156 18.097656 7.546875 17.578125 8.136719 16.964844 C 8.097656 16.851562 8.0625 16.742188 8.027344 16.628906 C 6.589844 17.777344 5.839844 18.777344 6.113281 19.367188 C 6.40625 19.988281 7.785156 20.027344 9.75 19.589844 C 11.558594 19.1875 13.859375 18.382812 16.28125 17.253906 C 18.703125 16.121094 20.796875 14.871094 22.265625 13.746094 C 23.863281 12.519531 24.71875 11.4375 24.425781 10.8125 C 24.152344 10.222656 22.902344 10.15625 21.097656 10.523438 " fill-opacity="1" fill-rule="nonzero"/><g fill="#eff0f7" fill-opacity="1"><g transform="translate(34.753842, 13.070321)"><g><path d="M 7.3125 -6.84375 L 7.3125 0 L 5.578125 0 L 5.578125 -0.859375 C 5.347656 -0.566406 5.054688 -0.332031 4.703125 -0.15625 C 4.347656 0.0078125 3.957031 0.09375 3.53125 0.09375 C 3 0.09375 2.523438 -0.0195312 2.109375 -0.25 C 1.703125 -0.476562 1.378906 -0.8125 1.140625 -1.25 C 0.910156 -1.695312 0.796875 -2.222656 0.796875 -2.828125 L 0.796875 -6.84375 L 2.515625 -6.84375 L 2.515625 -3.078125 C 2.515625 -2.535156 2.648438 -2.117188 2.921875 -1.828125 C 3.203125 -1.535156 3.578125 -1.390625 4.046875 -1.390625 C 4.523438 -1.390625 4.898438 -1.535156 5.171875 -1.828125 C 5.441406 -2.117188 5.578125 -2.535156 5.578125 -3.078125 L 5.578125 -6.84375 Z M 7.3125 -6.84375 "/></g></g></g><g fill="#eff0f7" fill-opacity="1"><g transform="translate(42.786836, 13.070321)"><g><path d="M 4.640625 -6.953125 C 5.460938 -6.953125 6.125 -6.691406 6.625 -6.171875 C 7.125 -5.660156 7.375 -4.941406 7.375 -4.015625 L 7.375 0 L 5.640625 0 L 5.640625 -3.78125 C 5.640625 -4.320312 5.503906 -4.738281 5.234375 -5.03125 C 4.960938 -5.320312 4.59375 -5.46875 4.125 -5.46875 C 3.644531 -5.46875 3.265625 -5.320312 2.984375 -5.03125 C 2.710938 -4.738281 2.578125 -4.320312 2.578125 -3.78125 L 2.578125 0 L 0.859375 0 L 0.859375 -6.84375 L 2.578125 -6.84375 L 2.578125 -6 C 2.804688 -6.289062 3.097656 -6.519531 3.453125 -6.6875 C 3.816406 -6.863281 4.210938 -6.953125 4.640625 -6.953125 Z M 4.640625 -6.953125 "/></g></g></g><g fill="#eff0f7" fill-opacity="1"><g transform="translate(50.81983, 13.070321)"><g><path d="M 2.578125 -5.84375 C 2.804688 -6.175781 3.113281 -6.441406 3.5 -6.640625 C 3.894531 -6.847656 4.34375 -6.953125 4.84375 -6.953125 C 5.425781 -6.953125 5.953125 -6.804688 6.421875 -6.515625 C 6.898438 -6.234375 7.273438 -5.828125 7.546875 -5.296875 C 7.828125 -4.765625 7.96875 -4.148438 7.96875 -3.453125 C 7.96875 -2.742188 7.828125 -2.117188 7.546875 -1.578125 C 7.273438 -1.046875 6.898438 -0.628906 6.421875 -0.328125 C 5.953125 -0.0351562 5.425781 0.109375 4.84375 0.109375 C 4.332031 0.109375 3.882812 0.0078125 3.5 -0.1875 C 3.113281 -0.394531 2.804688 -0.65625 2.578125 -0.96875 L 2.578125 0 L 0.859375 0 L 0.859375 -9.140625 L 2.578125 -9.140625 Z M 6.203125 -3.453125 C 6.203125 -3.859375 6.117188 -4.210938 5.953125 -4.515625 C 5.785156 -4.816406 5.5625 -5.046875 5.28125 -5.203125 C 5.007812 -5.359375 4.710938 -5.4375 4.390625 -5.4375 C 4.078125 -5.4375 3.78125 -5.351562 3.5 -5.1875 C 3.226562 -5.03125 3.003906 -4.800781 2.828125 -4.5 C 2.660156 -4.195312 2.578125 -3.835938 2.578125 -3.421875 C 2.578125 -3.015625 2.660156 -2.65625 2.828125 -2.34375 C 3.003906 -2.039062 3.226562 -1.804688 3.5 -1.640625 C 3.78125 -1.484375 4.078125 -1.40625 4.390625 -1.40625 C 4.710938 -1.40625 5.007812 -1.488281 5.28125 -1.65625 C 5.5625 -1.820312 5.785156 -2.054688 5.953125 -2.359375 C 6.117188 -2.660156 6.203125 -3.023438 6.203125 -3.453125 Z M 6.203125 -3.453125 "/></g></g></g><g fill="#eff0f7" fill-opacity="1"><g transform="translate(59.062917, 13.070321)"><g><path d="M 2.578125 -9.140625 L 2.578125 0 L 0.859375 0 L 0.859375 -9.140625 Z M 2.578125 -9.140625 "/></g></g></g><g fill="#eff0f7" fill-opacity="1"><g transform="translate(62.362621, 13.070321)"><g><path d="M 3.890625 0.109375 C 3.234375 0.109375 2.640625 -0.0351562 2.109375 -0.328125 C 1.585938 -0.617188 1.175781 -1.03125 0.875 -1.5625 C 0.570312 -2.101562 0.421875 -2.722656 0.421875 -3.421875 C 0.421875 -4.117188 0.570312 -4.734375 0.875 -5.265625 C 1.1875 -5.804688 1.609375 -6.222656 2.140625 -6.515625 C 2.679688 -6.804688 3.28125 -6.953125 3.9375 -6.953125 C 4.601562 -6.953125 5.203125 -6.804688 5.734375 -6.515625 C 6.265625 -6.222656 6.6875 -5.804688 7 -5.265625 C 7.3125 -4.734375 7.46875 -4.117188 7.46875 -3.421875 C 7.46875 -2.722656 7.304688 -2.101562 6.984375 -1.5625 C 6.671875 -1.03125 6.242188 -0.617188 5.703125 -0.328125 C 5.160156 -0.0351562 4.554688 0.109375 3.890625 0.109375 Z M 3.890625 -1.390625 C 4.203125 -1.390625 4.492188 -1.46875 4.765625 -1.625 C 5.046875 -1.78125 5.269531 -2.007812 5.4375 -2.3125 C 5.601562 -2.613281 5.6875 -2.984375 5.6875 -3.421875 C 5.6875 -4.078125 5.515625 -4.578125 5.171875 -4.921875 C 4.828125 -5.273438 4.410156 -5.453125 3.921875 -5.453125 C 3.421875 -5.453125 3.003906 -5.273438 2.671875 -4.921875 C 2.335938 -4.578125 2.171875 -4.078125 2.171875 -3.421875 C 2.171875 -2.773438 2.332031 -2.273438 2.65625 -1.921875 C 2.988281 -1.566406 3.398438 -1.390625 3.890625 -1.390625 Z M 3.890625 -1.390625 "/></g></g></g><g fill="#eff0f7" fill-opacity="1"><g transform="translate(70.111369, 13.070321)"><g><path d="M 0.40625 -3.421875 C 0.40625 -4.128906 0.546875 -4.75 0.828125 -5.28125 C 1.117188 -5.8125 1.519531 -6.222656 2.03125 -6.515625 C 2.550781 -6.804688 3.140625 -6.953125 3.796875 -6.953125 C 4.640625 -6.953125 5.335938 -6.738281 5.890625 -6.3125 C 6.453125 -5.894531 6.828125 -5.300781 7.015625 -4.53125 L 5.15625 -4.53125 C 5.050781 -4.832031 4.878906 -5.066406 4.640625 -5.234375 C 4.410156 -5.398438 4.125 -5.484375 3.78125 -5.484375 C 3.289062 -5.484375 2.898438 -5.300781 2.609375 -4.9375 C 2.316406 -4.582031 2.171875 -4.078125 2.171875 -3.421875 C 2.171875 -2.773438 2.316406 -2.269531 2.609375 -1.90625 C 2.898438 -1.550781 3.289062 -1.375 3.78125 -1.375 C 4.476562 -1.375 4.9375 -1.6875 5.15625 -2.3125 L 7.015625 -2.3125 C 6.828125 -1.570312 6.453125 -0.984375 5.890625 -0.546875 C 5.335938 -0.109375 4.640625 0.109375 3.796875 0.109375 C 3.140625 0.109375 2.550781 -0.0351562 2.03125 -0.328125 C 1.519531 -0.617188 1.117188 -1.03125 0.828125 -1.5625 C 0.546875 -2.09375 0.40625 -2.710938 0.40625 -3.421875 Z M 0.40625 -3.421875 "/></g></g></g><g clip-path="url(#bcc64b9d9b)"><g fill="#eff0f7" fill-opacity="1"><g transform="translate(77.415213, 13.070321)"><g><path d="M 4.90625 0 L 2.578125 -2.921875 L 2.578125 0 L 0.859375 0 L 0.859375 -9.140625 L 2.578125 -9.140625 L 2.578125 -3.9375 L 4.875 -6.84375 L 7.125 -6.84375 L 4.109375 -3.40625 L 7.15625 0 Z M 4.90625 0 "/></g></g></g></g><g fill="#eff0f7" fill-opacity="1"><g transform="translate(34.753842, 24.667679)"><g><path d="M 0.40625 -3.453125 C 0.40625 -4.140625 0.539062 -4.75 0.8125 -5.28125 C 1.09375 -5.820312 1.472656 -6.234375 1.953125 -6.515625 C 2.429688 -6.804688 2.960938 -6.953125 3.546875 -6.953125 C 3.992188 -6.953125 4.414062 -6.851562 4.8125 -6.65625 C 5.21875 -6.46875 5.539062 -6.210938 5.78125 -5.890625 L 5.78125 -9.140625 L 7.546875 -9.140625 L 7.546875 0 L 5.78125 0 L 5.78125 -1.015625 C 5.570312 -0.671875 5.269531 -0.394531 4.875 -0.1875 C 4.488281 0.0078125 4.039062 0.109375 3.53125 0.109375 C 2.957031 0.109375 2.429688 -0.0351562 1.953125 -0.328125 C 1.472656 -0.628906 1.09375 -1.046875 0.8125 -1.578125 C 0.539062 -2.117188 0.40625 -2.742188 0.40625 -3.453125 Z M 5.796875 -3.421875 C 5.796875 -3.835938 5.710938 -4.195312 5.546875 -4.5 C 5.378906 -4.800781 5.15625 -5.03125 4.875 -5.1875 C 4.601562 -5.351562 4.304688 -5.4375 3.984375 -5.4375 C 3.660156 -5.4375 3.363281 -5.359375 3.09375 -5.203125 C 2.820312 -5.046875 2.597656 -4.816406 2.421875 -4.515625 C 2.253906 -4.210938 2.171875 -3.859375 2.171875 -3.453125 C 2.171875 -3.035156 2.253906 -2.671875 2.421875 -2.359375 C 2.597656 -2.054688 2.820312 -1.820312 3.09375 -1.65625 C 3.375 -1.488281 3.671875 -1.40625 3.984375 -1.40625 C 4.304688 -1.40625 4.601562 -1.484375 4.875 -1.640625 C 5.15625 -1.804688 5.378906 -2.039062 5.546875 -2.34375 C 5.710938 -2.644531 5.796875 -3.003906 5.796875 -3.421875 Z M 5.796875 -3.421875 "/></g></g></g><g fill="#eff0f7" fill-opacity="1"><g transform="translate(42.996928, 24.667679)"><g><path d="M 7.21875 -3.578125 C 7.21875 -3.328125 7.203125 -3.101562 7.171875 -2.90625 L 2.15625 -2.90625 C 2.195312 -2.40625 2.367188 -2.015625 2.671875 -1.734375 C 2.984375 -1.460938 3.363281 -1.328125 3.8125 -1.328125 C 4.445312 -1.328125 4.898438 -1.601562 5.171875 -2.15625 L 7.046875 -2.15625 C 6.847656 -1.488281 6.46875 -0.941406 5.90625 -0.515625 C 5.34375 -0.0976562 4.65625 0.109375 3.84375 0.109375 C 3.1875 0.109375 2.59375 -0.0351562 2.0625 -0.328125 C 1.539062 -0.617188 1.132812 -1.03125 0.84375 -1.5625 C 0.550781 -2.101562 0.40625 -2.722656 0.40625 -3.421875 C 0.40625 -4.128906 0.546875 -4.75 0.828125 -5.28125 C 1.117188 -5.820312 1.523438 -6.234375 2.046875 -6.515625 C 2.566406 -6.804688 3.164062 -6.953125 3.84375 -6.953125 C 4.488281 -6.953125 5.066406 -6.8125 5.578125 -6.53125 C 6.097656 -6.257812 6.5 -5.863281 6.78125 -5.34375 C 7.070312 -4.832031 7.21875 -4.242188 7.21875 -3.578125 Z M 5.421875 -4.0625 C 5.410156 -4.507812 5.25 -4.863281 4.9375 -5.125 C 4.625 -5.394531 4.242188 -5.53125 3.796875 -5.53125 C 3.367188 -5.53125 3.007812 -5.398438 2.71875 -5.140625 C 2.425781 -4.890625 2.242188 -4.53125 2.171875 -4.0625 Z M 5.421875 -4.0625 "/></g></g></g><g fill="#eff0f7" fill-opacity="1"><g transform="translate(50.486148, 24.667679)"><g><path d="M 3.703125 -1.59375 L 5.4375 -6.84375 L 7.28125 -6.84375 L 4.75 0 L 2.640625 0 L 0.125 -6.84375 L 1.984375 -6.84375 Z M 3.703125 -1.59375 "/></g></g></g></svg>